<svg width="26" height="28" viewBox="0 0 26 28" fill="none" xmlns="http://www.w3.org/2000/svg">
<path d="M22.0412 11.0072V9.72426C22.0412 4.90598 18.1352 1 13.3169 1H12.8037C7.98545 1 4.07947 4.90598 4.07947 9.72426V11.0072" stroke="white" stroke-width="1.3" stroke-linecap="round"/>
<path d="M1.00012 13.8296C1.00012 12.4125 2.14894 11.2637 3.56608 11.2637H5.10565C5.38908 11.2637 5.61885 11.4934 5.61885 11.7769V19.4747C5.61885 19.7582 5.38908 19.9879 5.10565 19.9879H3.56608C2.14894 19.9879 1.00012 18.8391 1.00012 17.422V13.8296Z" stroke="white" stroke-width="1.3"/>
<path d="M25.1201 17.4223C25.1201 18.8395 23.9713 19.9883 22.5542 19.9883L21.0146 19.9883C20.7312 19.9883 20.5014 19.7585 20.5014 19.4751L20.5014 11.7772C20.5014 11.4938 20.7312 11.264 21.0146 11.264L22.5542 11.264C23.9713 11.264 25.1201 12.4128 25.1201 13.83L25.1201 17.4223Z" stroke="white" stroke-width="1.3"/>
<path d="M22.5539 19.7314V19.988C22.5539 21.972 20.9456 23.5804 18.9616 23.5804H17.1654" stroke="white" stroke-width="1.3"/>
<circle cx="13.83" cy="23.5806" r="3.07915" stroke="white" stroke-width="1.3"/>
</svg>
