<svg width="30" height="30" viewBox="0 0 30 30" fill="none" xmlns="http://www.w3.org/2000/svg">
<path d="M6.27295 6.00031C5.99382 6.00031 5.71439 6.10663 5.50166 6.3199L3.3199 8.50166C2.89337 8.9282 2.89337 9.61879 3.3199 10.0442L11.2757 18L3.3199 25.9558C2.89337 26.3823 2.89337 27.0729 3.3199 27.4983L5.50166 29.6801C5.9282 30.1066 6.61879 30.1066 7.04424 29.6801L15 21.7243L22.9558 29.6801C23.3812 30.1066 24.0729 30.1066 24.4983 29.6801L26.6801 27.4983C27.1066 27.0718 27.1066 26.3812 26.6801 25.9558L18.7243 18L26.6801 10.0442C27.1066 9.61879 27.1066 8.92711 26.6801 8.50166L24.4983 6.3199C24.0718 5.89337 23.3812 5.89337 22.9558 6.3199L15 14.2757L7.04424 6.3199C6.83097 6.10663 6.55208 6.00031 6.27295 6.00031Z" fill="#0070BA"/>
</svg>
