<svg width="19" height="19" viewBox="0 0 19 19" fill="none" xmlns="http://www.w3.org/2000/svg">
<path d="M9.33333 17.6667C13.9357 17.6667 17.6667 13.9357 17.6667 9.33333C17.6667 4.73096 13.9357 1 9.33333 1C4.73096 1 1 4.73096 1 9.33333C1 13.9357 4.73096 17.6667 9.33333 17.6667Z" stroke="#EE2124" stroke-width="2"/>
<path d="M6.22736 5.00012C6.12268 5.00012 6.01789 5.03999 5.93812 5.11996L5.11996 5.93812C4.96001 6.09807 4.96001 6.35705 5.11996 6.51659L8.10337 9.5L5.11996 12.4834C4.96001 12.6434 4.96001 12.9023 5.11996 13.0619L5.93812 13.88C6.09807 14.04 6.35705 14.04 6.51659 13.88L9.5 10.8966L12.4834 13.88C12.643 14.04 12.9023 14.04 13.0619 13.88L13.88 13.0619C14.04 12.9019 14.04 12.643 13.88 12.4834L10.8966 9.5L13.88 6.51659C14.04 6.35705 14.04 6.09767 13.88 5.93812L13.0619 5.11996C12.9019 4.96001 12.643 4.96001 12.4834 5.11996L9.5 8.10337L6.51659 5.11996C6.43661 5.03999 6.33203 5.00012 6.22736 5.00012Z" fill="#EE2124"/>
</svg>
