<svg width="24" height="24" viewBox="0 0 24 24" fill="none" xmlns="http://www.w3.org/2000/svg">
<path d="M5.31875 14.5031L4.48313 17.6218L1.43 17.6868C0.5175 15.9943 0 14.0581 0 12C0 10.01 0.48375 8.1337 1.34187 6.4812H1.3425L4.06125 6.97995L5.25187 9.68183C5.0025 10.4087 4.86688 11.1887 4.86688 12C4.86688 12.8806 5.02625 13.725 5.31875 14.5031Z" fill="#FBBB00"/>
<path d="M23.79 9.75818C23.9281 10.4838 24 11.2338 24 12.0001C24 12.8594 23.9094 13.6976 23.7375 14.5057C23.1531 17.2563 21.6269 19.6582 19.5125 21.3582L19.5119 21.3576L16.0881 21.1826L15.6037 18.1576C17.0069 17.3344 18.1037 16.0469 18.6812 14.5057H12.2637V9.75818H23.79Z" fill="#518EF8"/>
<path d="M19.5119 21.3575C17.4562 23.0113 14.8437 24 12 24C7.42999 24 3.45687 21.4457 1.42999 17.6869L5.31874 14.5038C6.33187 17.2082 8.94124 19.1338 12 19.1338C13.3144 19.1338 14.5462 18.7782 15.6031 18.1582L19.5119 21.3575Z" fill="#28B446"/>
<path d="M19.6594 2.7625L15.7719 5.945C14.6781 5.26125 13.385 4.86625 12 4.86625C8.87187 4.86625 6.21437 6.88 5.25187 9.68125L1.3425 6.48125H1.34187C3.33875 2.63062 7.3625 0 12 0C14.9119 0 17.5812 1.03688 19.6594 2.7625Z" fill="#F14336"/>
</svg>
