<svg width="41" height="33" viewBox="0 0 41 33" fill="none" xmlns="http://www.w3.org/2000/svg">
<path d="M28.063 23.3118H8.58635C7.1984 23.3118 6.07324 22.1866 6.07324 20.7986V3.83513C6.07324 2.44718 7.1984 1.32202 8.58636 1.32202H37.4872C38.8751 1.32202 40.0003 2.44718 40.0003 3.83513V20.7986C40.0003 22.1866 38.8751 23.3118 37.4872 23.3118H34.974" stroke="white" stroke-width="1.2792" stroke-linecap="round"/>
<path d="M28.063 23.3118L36.8589 28.6521L34.974 23.3118" stroke="white" stroke-width="1.2792" stroke-miterlimit="16" stroke-linecap="round" stroke-linejoin="round"/>
<path d="M27.4346 23.3115V25.1592C27.4346 26.5472 26.3094 27.6723 24.9215 27.6723H10.1067M4.66085 27.6723H3.21332C1.82536 27.6723 0.700205 26.5472 0.700205 25.1592V12.8576C0.700205 11.4696 1.82536 10.3445 3.21332 10.3445H6.07311" stroke="white" stroke-width="1.2792"/>
<path d="M10.1069 27.6726L3.1758 31.8808L4.66104 27.6726" stroke="white" stroke-width="1.2792" stroke-miterlimit="16" stroke-linecap="round" stroke-linejoin="round"/>
<path d="M11.0991 7.60449H24.2604" stroke="white" stroke-width="1.2792" stroke-linecap="round"/>
<path d="M11.0991 12.0027H27.0877" stroke="white" stroke-width="1.2792" stroke-linecap="round"/>
<path d="M11.0991 17.0288H25.2029" stroke="white" stroke-width="1.2792" stroke-linecap="round"/>
<path d="M33.8229 6.95138C34.9362 6.24771 36.0843 6.07177 36.4322 6.59954C36.7801 7.12731 35.9103 8.24145 35.3885 8.71058L32.9531 10.4698C33.0111 12.3462 33.1271 16.3454 33.1271 17.3306C33.1271 18.3157 32.0834 18.7965 31.5615 18.9138L30.1699 14.164L29.648 12.9326L26.5169 14.8677L26.8648 16.8028L25.8211 17.6824L22.6899 13.2844L23.9076 12.4049L25.4732 13.4604L28.4304 10.9975L27.7346 10.2938C27.3171 9.87163 25.0093 7.88961 23.9076 6.95138C24.1395 6.54091 24.7426 5.71997 25.2992 5.71997C25.8559 5.71997 29.706 7.71371 31.5615 8.71058C31.8514 8.41737 32.7096 7.65505 33.8229 6.95138Z" stroke="white" stroke-width="0.994936" stroke-miterlimit="16" stroke-linecap="round" stroke-linejoin="round"/>
</svg>
