<?xml version="1.0" encoding="utf-8"?>
<!-- Generator: Adobe Illustrator 28.3.0, SVG Export Plug-In . SVG Version: 6.00 Build 0)  -->
<svg version="1.1" id="Capa_1" xmlns="http://www.w3.org/2000/svg" xmlns:xlink="http://www.w3.org/1999/xlink" x="0px" y="0px"
	 viewBox="0 0 63.5 86" style="enable-background:new 0 0 63.5 86;" xml:space="preserve">
<style type="text/css">
	.st0{fill:#FFFFFF;}
</style>
<g>
	<path class="st0" d="M59.7,51.3c-0.8,0-1.5,0.7-1.5,1.5v6.3c0,1.7-1.4,3-3,3H6V23.4c0-0.8-0.7-1.5-1.5-1.5S3,22.6,3,23.4v44
		c0,4.4,3.6,8,8,8h0.5v7.3c0,0.5,0.3,1,0.8,1.2c0.5,0.2,1,0.2,1.4-0.2l5.9-4.7l5.9,5.4c0.3,0.2,0.6,0.3,0.9,0.3c0.2,0,0.4,0,0.6-0.1
		c0.5-0.2,0.8-0.7,0.8-1.2v-8h31.9c0.8,0,1.5-0.7,1.5-1.5s-0.7-1.5-1.5-1.5H27.8v-7.3h27.3c3.3,0,6-2.7,6-6v-6.3
		C61.2,52,60.5,51.3,59.7,51.3z M11,72.4c-2.8,0-5-2.2-5-5v-2.3h5.5v7.3H11z M25.1,80.4l-4.5-4.1c-0.5-0.4-1.2-0.5-1.8,0l-4.6,3.7
		V65.1h10.9V80.4z"/>
	<path class="st0" d="M55.2,1H9c-3.3,0-6,2.7-6,6v7.7c0,0.8,0.7,1.5,1.5,1.5S6,15.6,6,14.8V7.1c0-1.7,1.4-3,3-3h46.2
		c1.7,0,3,1.4,3,3v36.4c0,0.8,0.7,1.5,1.5,1.5s1.5-0.7,1.5-1.5V7.1C61.2,3.7,58.5,1,55.2,1z"/>
	<path class="st0" d="M17.8,18.9h0.2c1.8,0,3.3-1.5,3.3-3.3s-1.5-3.3-3.3-3.3h-0.2c-1.8,0-3.3,1.5-3.3,3.3S16,18.9,17.8,18.9z"/>
	<path class="st0" d="M17.8,32.3h0.2c1.8,0,3.3-1.5,3.3-3.3s-1.5-3.3-3.3-3.3h-0.2c-1.8,0-3.3,1.5-3.3,3.3S16,32.3,17.8,32.3z"/>
	<path class="st0" d="M17.8,45.7h0.2c1.8,0,3.3-1.5,3.3-3.3c0-1.8-1.5-3.3-3.3-3.3h-0.2c-1.8,0-3.3,1.5-3.3,3.3
		C14.5,44.2,16,45.7,17.8,45.7z"/>
</g>
</svg>
