<svg width="38" height="55" viewBox="0 0 38 55" fill="none" xmlns="http://www.w3.org/2000/svg">
<path d="M34.0088 32.1491L36.9805 36.3333C36.6706 37.4181 36.0507 39.6807 36.0507 40.0526C36.0507 40.4246 36.3607 41.1374 36.5156 41.4474L35.5858 43.307V44.2368L35.1209 45.1667C35.1209 45.6316 35.1209 46.6544 35.1209 47.0263C35.1209 47.3982 36.0507 47.8012 36.5156 47.9561L34.656 50.2807C34.656 50.7456 34.563 51.6754 34.1911 51.6754C33.7261 51.6754 33.7261 52.6053 33.7261 53.0702C33.7261 53.5351 33.2612 54 32.7963 54C32.3314 54 30.0068 53.0702 29.5419 52.6053C29.077 52.1404 29.077 51.2105 29.077 50.7456C29.077 50.3737 22.2583 47.1813 18.849 45.6316C17.7642 44.5468 15.5946 42.1912 15.5946 41.4474C15.5946 40.7035 15.5946 39.8977 15.5946 39.5877C14.8197 38.8129 13.27 37.1702 13.27 36.7982C13.27 36.3333 12.8051 34.9386 12.8051 34.4737C12.8051 34.0088 11.4104 34.0088 11.4104 33.5439C11.4104 33.0789 8.62088 26.5702 8.15607 25.1754C7.69126 23.7807 5.83151 21.9211 5.3665 20.9912C4.90149 20.0614 1.6472 19.5965 1.18239 18.6667C0.810537 17.9228 1.64733 17.4269 2.11221 17.2719C1.95724 17.117 1.55432 16.5281 1.18239 15.4123C0.717475 14.0175 1.18239 13.0877 2.11221 12.1579C3.04204 11.2281 3.97186 9.83333 3.97186 10.7632C3.97186 11.507 3.97186 12.3129 3.97186 12.6228C4.2818 12.7778 5.08765 13.1807 5.83151 13.5526C6.57537 13.9246 6.76133 14.6374 6.76133 14.9474C7.07128 14.7924 7.78414 14.2035 8.15607 13.0877C8.62098 11.693 9.0859 11.2281 10.0157 10.2982C10.9455 9.36842 11.4105 9.36842 13.2701 8.90351C15.1298 8.4386 15.1298 7.97368 15.5947 7.50877C16.0596 7.04386 16.9894 6.11404 17.4543 4.7193C17.8262 3.60351 18.2292 3.6345 18.3841 3.78947C18.3841 3.47953 18.2912 2.76667 17.9192 2.39474C17.4543 1.92982 17.4543 1.46491 17.4543 1H19.3139C19.9337 1.77485 21.2665 3.41754 21.6384 3.78947C22.0104 4.1614 23.0332 5.18421 23.4981 5.64912L24.4279 7.97368L29.5419 7.04386L32.3314 8.90351L31.4016 11.2281H32.3314L33.2612 13.0877C32.6414 13.0877 31.3086 13.0877 30.9367 13.0877C30.5647 13.0877 27.0624 14.3275 25.3577 14.9474L24.4279 18.1185V19.5965L22.5683 20.0614L22.1033 22.386L23.4981 24.7105" stroke="white" stroke-width="1.50632" stroke-miterlimit="16" stroke-linecap="round" stroke-linejoin="round"/>
<path d="M24.5835 38.7849H31.7262" stroke="white" stroke-width="1.22568" stroke-linecap="round"/>
<path d="M34.4735 28.8947C34.4735 32.2326 29.5285 37.6858 28.4296 37.6858C27.3307 37.6858 22.3857 32.2326 22.3857 28.8947C22.3857 25.5568 25.0917 22.8508 28.4296 22.8508C31.7675 22.8508 34.4735 25.5568 34.4735 28.8947Z" stroke="white" stroke-width="1.22568"/>
<circle cx="28.4298" cy="28.8949" r="2.74721" stroke="white" stroke-width="1.22568"/>
</svg>
