<svg width="36" height="49" viewBox="0 0 36 49" fill="none" xmlns="http://www.w3.org/2000/svg">
<path d="M18.1206 7.03675C18.5076 7.42372 19.4673 8.33697 20.2102 8.89421C20.9532 9.45145 21.2938 10.0551 21.3712 10.2873C21.6807 9.049 21.9748 6.06158 20.6746 4.01837C19.3744 1.97517 18.4302 1.15479 18.1206 1M22.7643 12.1448C24.0026 12.377 26.6649 12.3305 27.4079 10.2873C28.1509 8.2441 27.7175 5.10189 27.4079 4.01837C26.9435 4.48274 25.7826 5.64365 24.8539 6.10802C24.0068 6.53159 23.5382 6.49499 23.4608 6.57238C23.693 7.03675 24.1574 7.96548 23.693 9.59076C23.3044 10.9509 22.7643 11.8352 22.7643 12.1448Z" stroke="white" stroke-width="0.998018" stroke-miterlimit="16" stroke-linecap="round" stroke-linejoin="round"/>
<path d="M30.0618 26.3091C30.0618 26.3091 30.9176 26.6982 31.6178 27.8654C32.2012 28.8382 32.3957 30.3945 32.3957 30.3945C32.3957 30.3945 30.6453 29.0327 28.5059 29.6163" stroke="white" stroke-width="0.998018" stroke-miterlimit="16" stroke-linecap="round" stroke-linejoin="round"/>
<path d="M24.6221 14.0213C26.7615 14.0213 27.5395 14.2159 29.0954 13.4377C30.3402 12.8151 31.8184 10.5195 31.8184 10.5195C31.8184 10.5195 32.9853 13.2431 32.4018 15.9668C31.9172 18.2291 30.4569 19.6631 30.4569 19.6631" stroke="white" stroke-width="0.998018" stroke-miterlimit="16" stroke-linecap="round" stroke-linejoin="round"/>
<path d="M30.306 20.0396C30.306 20.0396 30.5381 20.7362 31.931 20.9684C33.0917 21.1619 34.9488 20.2718 34.9488 20.2718C34.9488 20.2718 34.2522 23.0581 31.6988 25.1479C29.1454 27.2377 27.2882 26.5411 27.2882 26.5411" stroke="white" stroke-width="0.998018" stroke-miterlimit="16" stroke-linecap="round" stroke-linejoin="round"/>
<path d="M18.1206 13.5377C18.3528 13.2281 18.9851 12.7852 19.5137 12.6089C20.2102 12.3768 20.6746 12.4542 20.9068 12.3768C20.9068 12.1446 20.7211 11.3087 19.9781 10.7515C19.2351 10.1942 18.4302 9.97754 18.1206 9.82275" stroke="white" stroke-width="0.998018" stroke-miterlimit="16" stroke-linecap="round" stroke-linejoin="round"/>
<path d="M20.5778 23.501C19.4808 22.5045 18.792 21.0666 18.792 19.4679C18.792 16.4596 21.2306 14.021 24.2389 14.021C27.2471 14.021 29.6858 16.4596 29.6858 19.4679C29.6858 22.4761 27.2471 24.9148 24.2389 24.9148C23.7152 24.9148 23.2087 24.8408 22.7294 24.7029" stroke="white" stroke-width="0.998018"/>
<circle cx="24.2391" cy="19.4678" r="2.72344" stroke="white" stroke-width="0.998018"/>
<path d="M21.8359 18.8782C21.8359 18.8782 22.9852 18.4138 24.3899 18.4138C25.7947 18.4138 26.7118 18.8782 26.7118 18.8782" stroke="white" stroke-width="0.998018" stroke-linecap="round"/>
<path d="M17.8887 7.03675C17.5017 7.42372 16.542 8.33697 15.799 8.89421C15.056 9.45145 14.7155 10.0551 14.6381 10.2873C14.3285 9.049 14.0344 6.06158 15.3347 4.01837C16.6349 1.97517 17.5791 1.15479 17.8887 1M13.245 12.1448C12.0067 12.377 9.34435 12.3305 8.60136 10.2873C7.85838 8.2441 8.29179 5.10189 8.60136 4.01837C9.06573 4.48274 10.2266 5.64365 11.1554 6.10802C12.0025 6.53159 12.4711 6.49499 12.5485 6.57238C12.3163 7.03675 11.8519 7.96548 12.3163 9.59076C12.7049 10.9509 13.245 11.8352 13.245 12.1448Z" stroke="white" stroke-width="0.998018" stroke-miterlimit="16" stroke-linecap="round" stroke-linejoin="round"/>
<path d="M17.8887 13.5377C17.6565 13.2281 17.0242 12.7852 16.4956 12.6089C15.799 12.3768 15.3347 12.4542 15.1025 12.3768C15.1025 12.1446 15.2882 11.3087 16.0312 10.7515C16.7742 10.1942 17.5791 9.97754 17.8887 9.82275" stroke="white" stroke-width="0.998018" stroke-miterlimit="16" stroke-linecap="round" stroke-linejoin="round"/>
<path d="M6.52383 26.3079C6.52383 26.3079 5.66789 26.6969 4.96758 27.8641C4.38398 28.8368 4.18945 30.393 4.18945 30.393C4.18945 30.393 5.94023 29.0313 8.08008 29.6149" stroke="white" stroke-width="0.998018" stroke-miterlimit="16" stroke-linecap="round" stroke-linejoin="round"/>
<path d="M11.9648 14.0211C9.825 14.0211 9.04687 14.2156 7.49062 13.4375C6.24562 12.815 4.76718 10.5195 4.76718 10.5195C4.76718 10.5195 3.59999 13.243 4.18359 15.9664C4.66834 18.2286 6.1289 19.6625 6.1289 19.6625" stroke="white" stroke-width="0.998018" stroke-miterlimit="16" stroke-linecap="round" stroke-linejoin="round"/>
<path d="M6.27937 20.0389C6.27937 20.0389 6.04716 20.7355 4.65406 20.9677C3.49315 21.1612 1.63567 20.2711 1.63567 20.2711C1.63567 20.2711 2.33235 23.0573 4.88624 25.147C7.44014 27.2366 9.29771 26.5401 9.29771 26.5401" stroke="white" stroke-width="0.998018" stroke-miterlimit="16" stroke-linecap="round" stroke-linejoin="round"/>
<path d="M13.7094 24.5595C13.107 24.789 12.4534 24.9148 11.7704 24.9148C8.76218 24.9148 6.32353 22.4761 6.32353 19.4679C6.32353 16.4596 8.76218 14.021 11.7704 14.021C14.7786 14.021 17.2173 16.4596 17.2173 19.4679C17.2173 21.0777 16.5189 22.5245 15.4085 23.5217" stroke="white" stroke-width="0.998018"/>
<circle r="2.72344" transform="matrix(-1 0 0 1 11.7702 19.4678)" stroke="white" stroke-width="0.998018"/>
<path d="M9.29785 18.8782C9.29785 18.8782 10.4472 18.4138 11.8519 18.4138C13.2566 18.4138 14.1737 18.8782 14.1737 18.8782" stroke="white" stroke-width="0.998018" stroke-linecap="round"/>
<path d="M18.4639 41.8146C18.0769 41.4276 17.1172 40.5143 16.3742 39.9571C15.6312 39.3999 15.2907 38.7962 15.2133 38.564C14.9037 39.8023 14.6096 42.7897 15.9099 44.8329C17.2101 46.8762 18.1543 47.6965 18.4639 47.8513M13.8202 36.7065C12.5819 36.4744 9.91955 36.5208 9.17656 38.564C8.43358 40.6072 8.86698 43.7494 9.17656 44.8329C9.64093 44.3686 10.8018 43.2077 11.7306 42.7433C12.5777 42.3197 13.0463 42.3563 13.1237 42.2789C12.8915 41.8146 12.4271 40.8858 12.8915 39.2606C13.2801 37.9004 13.8202 37.0161 13.8202 36.7065Z" stroke="white" stroke-width="0.998018" stroke-miterlimit="16" stroke-linecap="round" stroke-linejoin="round"/>
<path d="M18.4639 35.3136C18.2317 35.6232 17.5994 36.0662 17.0708 36.2424C16.3742 36.4746 15.9099 36.3972 15.6777 36.4746C15.6777 36.7067 15.8634 37.5426 16.6064 38.0998C17.3494 38.6571 18.1543 38.8738 18.4639 39.0286" stroke="white" stroke-width="0.998018" stroke-miterlimit="16" stroke-linecap="round" stroke-linejoin="round"/>
<path d="M18.6963 41.8146C19.0833 41.4276 20.0429 40.5143 20.7859 39.9571C21.5289 39.3999 21.8695 38.7962 21.9468 38.564C22.2564 39.8023 22.5505 42.7897 21.2503 44.8329C19.9501 46.8762 19.0059 47.6965 18.6963 47.8513M23.3399 36.7066C24.5783 36.4744 27.2406 36.5208 27.9836 38.564C28.7266 40.6072 28.2932 43.7494 27.9836 44.8329C27.5192 44.3686 26.3583 43.2077 25.4296 42.7433C24.5825 42.3197 24.1139 42.3563 24.0365 42.2789C24.2687 41.8146 24.733 40.8858 24.2687 39.2606C23.8801 37.9004 23.3399 37.0161 23.3399 36.7066Z" stroke="white" stroke-width="0.998018" stroke-miterlimit="16" stroke-linecap="round" stroke-linejoin="round"/>
<path d="M18.6963 35.3136C18.9285 35.6232 19.5607 36.0662 20.0894 36.2424C20.7859 36.4746 21.2503 36.3972 21.4825 36.4746C21.4825 36.7067 21.2967 37.5426 20.5538 38.0998C19.8108 38.6571 19.0059 38.8738 18.6963 39.0286" stroke="white" stroke-width="0.998018" stroke-miterlimit="16" stroke-linecap="round" stroke-linejoin="round"/>
<path d="M9.99441 26.3697C12.7806 25.3153 14.4059 29.1815 18.1208 29.1815C20.4426 29.1815 23.9253 26.0182 26.2471 26.3697C28.5689 26.7212 29.2655 32.6963 26.9437 33.7508C24.7534 34.7455 21.6036 33.7508 18.1208 33.7508C14.569 33.7508 11.0103 35.0469 9.29784 33.7508C7.44033 32.3448 7.20821 27.4241 9.99441 26.3697Z" stroke="white" stroke-width="0.998018" stroke-miterlimit="16" stroke-linecap="round" stroke-linejoin="bevel"/>
<path d="M16.4955 28.1338C16.4955 28.1338 11.6398 26.8661 14.0284 24.0794C15.8997 21.8962 16.1624 25.5388 18.1525 25.5388C20.1425 25.5388 20.4136 22.3553 21.8256 23.7675C24.3205 26.2625 19.7461 28.1338 19.7461 28.1338" stroke="white" stroke-width="0.998018" stroke-miterlimit="16" stroke-linecap="round" stroke-linejoin="bevel"/>
<path d="M28.5104 39.5774C29.4603 37.8655 30.0013 35.8954 30.0013 33.7988C30.0013 32.3358 29.7378 30.9343 29.2558 29.6392M6.89289 29.6392C6.41089 30.9343 6.14746 32.3358 6.14746 33.7988C6.14746 36.4505 7.01277 38.9 8.47643 40.8804M16.2108 45.581C14.2783 45.2778 12.4997 44.5105 10.9928 43.3968M21.0561 45.35C22.8754 44.8817 24.5268 43.995 25.9014 42.7984" stroke="white" stroke-width="1.19269"/>
</svg>
