<svg width="21" height="22" viewBox="0 0 21 22" fill="none" xmlns="http://www.w3.org/2000/svg">
<path fill-rule="evenodd" clip-rule="evenodd" d="M8.53677 0.0742188C5.4992 0.0742188 3.03677 2.53666 3.03677 5.57422V10.4897L0.106863 16.3495C-0.225588 17.0144 0.257911 17.7967 1.00129 17.7967H19.4502C20.1936 17.7967 20.6771 17.0144 20.3447 16.3495L17.4148 10.4897V5.57422C17.4148 2.53665 14.9523 0.0742188 11.9148 0.0742188H8.53677ZM16.428 10.7226C16.4378 10.7641 16.4527 10.8036 16.4721 10.8404L19.4502 16.7967H1.00129L3.97949 10.8403C3.99884 10.8035 4.01375 10.7641 4.0235 10.7226C4.03333 10.6812 4.03764 10.6392 4.03677 10.5977V5.57422C4.03677 3.08894 6.05149 1.07422 8.53677 1.07422H11.9148C14.4 1.07422 16.4148 3.08894 16.4148 5.57422V10.5977C16.4139 10.6392 16.4182 10.6812 16.428 10.7226Z" fill="white"/>
<path fill-rule="evenodd" clip-rule="evenodd" d="M5.85136 18.4116C5.50709 18.4116 5.25529 18.7381 5.39757 19.0516C6.13505 20.6766 7.96455 21.7782 10.0116 21.7782C12.0587 21.7782 13.8882 20.6766 14.6257 19.0516C14.7679 18.7381 14.5161 18.4116 14.1719 18.4116C13.9497 18.4116 13.7553 18.553 13.6547 18.7511C13.0625 19.9178 11.693 20.7782 10.0116 20.7782C8.33027 20.7782 6.96071 19.9178 6.36851 18.7511C6.26798 18.553 6.0735 18.4116 5.85136 18.4116Z" fill="white"/>
</svg>
