<svg width="39" height="44" viewBox="0 0 39 44" fill="none" xmlns="http://www.w3.org/2000/svg">
<path d="M17.125 8.5L24.4649 7.45145C24.7844 7.40579 25.0974 7.56976 25.2417 7.8585L38.157 33.6889C38.3452 34.0653 38.1869 34.5228 37.8064 34.7025L25 40.75" stroke="white" stroke-width="1.5" stroke-miterlimit="16" stroke-linecap="round" stroke-linejoin="round"/>
<path d="M1.3823 12.785L12.6264 6.46015C12.8579 6.32993 13.141 6.33187 13.3707 6.46524L24.2516 12.7832C24.4827 12.9174 24.625 13.1645 24.625 13.4318V42.25C24.625 42.6642 24.2892 43 23.875 43H1.75C1.33579 43 1 42.6642 1 42.25V13.4386C1 13.1677 1.14615 12.9178 1.3823 12.785Z" stroke="white" stroke-width="1.5" stroke-miterlimit="16" stroke-linecap="round" stroke-linejoin="round"/>
<circle cx="13" cy="15.25" r="2.25" stroke="white" stroke-width="1.5" stroke-linecap="round" stroke-linejoin="round"/>
<path d="M19 23.875L7 35.875" stroke="white" stroke-width="1.5" stroke-miterlimit="16" stroke-linecap="round" stroke-linejoin="round"/>
<circle cx="8.875" cy="25.375" r="2.625" stroke="white" stroke-width="1.5" stroke-linecap="round" stroke-linejoin="round"/>
<circle cx="17.875" cy="34.375" r="2.625" stroke="white" stroke-width="1.5" stroke-linecap="round" stroke-linejoin="round"/>
<path d="M19.75 8.125C19.75 4.18997 16.56 1 12.625 1C8.68997 1 5.5 4.18997 5.5 8.125C5.5 12.06 8.68997 15.25 12.625 15.25C13.552 15.25 14.4377 15.073 15.25 14.7509" stroke="white" stroke-width="1.5" stroke-linecap="round" stroke-linejoin="round"/>
</svg>
