<svg width="44" height="42" viewBox="0 0 44 42" fill="none" xmlns="http://www.w3.org/2000/svg">
<path d="M3.19434 16.9109H10.3269" stroke="white" stroke-width="1.22393" stroke-linecap="round"/>
<path d="M13.0705 7.03523C13.0705 10.3684 8.13254 15.8137 7.03523 15.8137C5.93791 15.8137 1 10.3684 1 7.03523C1 3.70206 3.70206 1 7.03523 1C10.3684 1 13.0705 3.70206 13.0705 7.03523Z" stroke="white" stroke-width="1.22393"/>
<circle cx="7.03528" cy="7.03503" r="2.74328" stroke="white" stroke-width="1.22393"/>
<path d="M33.3706 41.0518H40.5031" stroke="white" stroke-width="1.22393" stroke-linecap="round"/>
<path d="M43.2462 31.1761C43.2462 34.5093 38.3083 39.9546 37.211 39.9546C36.1137 39.9546 31.1758 34.5093 31.1758 31.1761C31.1758 27.8429 33.8778 25.1409 37.211 25.1409C40.5442 25.1409 43.2462 27.8429 43.2462 31.1761Z" stroke="white" stroke-width="1.22393"/>
<circle cx="37.2111" cy="31.1759" r="2.74328" stroke="white" stroke-width="1.22393"/>
<path d="M7.26878 34.7596C7.26878 34.4221 6.9952 34.1485 6.65771 34.1485C6.32023 34.1485 6.04665 34.4221 6.04665 34.7596H7.26878ZM6.04665 34.7596C6.04665 35.0971 6.32023 35.3707 6.65771 35.3707C6.9952 35.3707 7.26878 35.0971 7.26878 34.7596H6.04665ZM25.3745 22.8777C25.3745 22.5403 25.1009 22.2667 24.7634 22.2667C24.4259 22.2667 24.1523 22.5403 24.1523 22.8777H25.3745ZM24.1523 22.8777C24.1523 23.2152 24.4259 23.4888 24.7634 23.4888C25.1009 23.4888 25.3745 23.2152 25.3745 22.8777H24.1523ZM13.7707 17.8308C14.1081 17.8308 14.3817 17.5572 14.3817 17.2197C14.3817 16.8822 14.1081 16.6087 13.7707 16.6087V17.8308ZM17.6505 16.6087C17.313 16.6087 17.0394 16.8822 17.0394 17.2197C17.0394 17.5572 17.313 17.8308 17.6505 17.8308V16.6087ZM19.9519 17.9014C20.2847 17.9575 20.6 17.7333 20.6561 17.4005C20.7123 17.0677 20.488 16.7524 20.1553 16.6963L19.9519 17.9014ZM22.7338 17.7648C22.4587 17.5693 22.0772 17.6338 21.8817 17.9089C21.6861 18.1839 21.7506 18.5654 22.0257 18.761L22.7338 17.7648ZM23.2222 19.9574C23.4177 20.2325 23.7992 20.297 24.0743 20.1015C24.3493 19.9059 24.4138 19.5244 24.2183 19.2494L23.2222 19.9574ZM25.2868 21.8279C25.2307 21.4951 24.9154 21.2708 24.5826 21.327C24.2498 21.3831 24.0256 21.6984 24.0817 22.0312L25.2868 21.8279ZM24.0817 23.7243C24.0256 24.0571 24.2498 24.3724 24.5826 24.4285C24.9154 24.4847 25.2307 24.2604 25.2868 23.9276L24.0817 23.7243ZM24.2183 26.5061C24.4138 26.2311 24.3493 25.8496 24.0743 25.654C23.7992 25.4585 23.4177 25.523 23.2222 25.7981L24.2183 26.5061ZM22.0257 26.9945C21.7506 27.1901 21.6861 27.5716 21.8817 27.8466C22.0772 28.1217 22.4587 28.1862 22.7338 27.9907L22.0257 26.9945ZM20.1553 29.0592C20.488 29.0031 20.7123 28.6878 20.6561 28.355C20.6 28.0222 20.2847 27.798 19.9519 27.8541L20.1553 29.0592ZM17.7717 27.9247C17.4342 27.9247 17.1606 28.1983 17.1606 28.5358C17.1606 28.8733 17.4342 29.1468 17.7717 29.1468V27.9247ZM14.2152 29.1468C14.5527 29.1468 14.8263 28.8733 14.8263 28.5358C14.8263 28.1983 14.5527 27.9247 14.2152 27.9247V29.1468ZM11.7368 28.0202C11.4041 28.0764 11.1798 28.3917 11.236 28.7245C11.2921 29.0572 11.6074 29.2815 11.9402 29.2253L11.7368 28.0202ZM9.63378 30.1813C9.90885 29.9858 9.97334 29.6043 9.77781 29.3292C9.58229 29.0542 9.2008 28.9897 8.92572 29.1852L9.63378 30.1813ZM7.30713 30.8038C7.11161 31.0788 7.1761 31.4603 7.45117 31.6559C7.72624 31.8514 8.10773 31.7869 8.30326 31.5118L7.30713 30.8038ZM7.34728 33.8182C7.40343 33.4854 7.17918 33.1702 6.8464 33.114C6.51362 33.0579 6.19834 33.2821 6.14218 33.6149L7.34728 33.8182ZM6.14218 35.9043C6.19833 36.2371 6.51362 36.4613 6.8464 36.4052C7.17918 36.349 7.40343 36.0338 7.34728 35.701L6.14218 35.9043ZM8.30326 38.0074C8.10773 37.7323 7.72624 37.6678 7.45117 37.8633C7.17609 38.0589 7.11161 38.4403 7.30713 38.7154L8.30326 38.0074ZM8.92572 40.334C9.20079 40.5295 9.58229 40.465 9.77781 40.19C9.97333 39.9149 9.90885 39.5334 9.63377 39.3379L8.92572 40.334ZM11.9402 40.2939C11.6074 40.2377 11.2921 40.462 11.236 40.7947C11.1798 41.1275 11.4041 41.4428 11.7368 41.499L11.9402 40.2939ZM14.1883 41.5945C14.5258 41.5945 14.7993 41.3209 14.7993 40.9834C14.7993 40.6459 14.5258 40.3724 14.1883 40.3724V41.5945ZM17.6729 40.3724C17.3354 40.3724 17.0618 40.6459 17.0618 40.9834C17.0618 41.3209 17.3354 41.5945 17.6729 41.5945V40.3724ZM20.2864 41.5945C20.6239 41.5945 20.8974 41.3209 20.8974 40.9834C20.8974 40.6459 20.6239 40.3724 20.2864 40.3724V41.5945ZM23.771 40.3724C23.4335 40.3724 23.1599 40.6459 23.1599 40.9834C23.1599 41.3209 23.4335 41.5945 23.771 41.5945V40.3724ZM26.3845 41.5945C26.7219 41.5945 26.9955 41.3209 26.9955 40.9834C26.9955 40.6459 26.7219 40.3724 26.3845 40.3724V41.5945ZM29.8691 40.3724C29.5316 40.3724 29.258 40.6459 29.258 40.9834C29.258 41.3209 29.5316 41.5945 29.8691 41.5945V40.3724ZM12.3157 17.8308H13.7707V16.6087H12.3157V17.8308ZM17.6505 17.8308H19.1054V16.6087H17.6505V17.8308ZM19.1054 17.8308C19.3943 17.8308 19.6771 17.855 19.9519 17.9014L20.1553 16.6963C19.8135 16.6386 19.4627 16.6087 19.1054 16.6087V17.8308ZM22.0257 18.761C22.4884 19.0898 22.8933 19.4948 23.2222 19.9574L24.2183 19.2494C23.8102 18.6752 23.3079 18.1729 22.7338 17.7648L22.0257 18.761ZM24.0817 22.0312C24.1281 22.3061 24.1523 22.5888 24.1523 22.8777H25.3745C25.3745 22.5204 25.3445 22.1696 25.2868 21.8279L24.0817 22.0312ZM24.1523 22.8777C24.1523 23.1667 24.1281 23.4494 24.0817 23.7243L25.2868 23.9276C25.3445 23.5859 25.3745 23.2351 25.3745 22.8777H24.1523ZM23.2222 25.7981C22.8933 26.2607 22.4884 26.6657 22.0257 26.9945L22.7338 27.9907C23.3079 27.5826 23.8102 27.0803 24.2183 26.5061L23.2222 25.7981ZM19.9519 27.8541C19.6771 27.9005 19.3943 27.9247 19.1054 27.9247V29.1468C19.4627 29.1468 19.8135 29.1169 20.1553 29.0592L19.9519 27.8541ZM19.1054 27.9247H17.7717V29.1468H19.1054V27.9247ZM14.2152 27.9247H12.8815V29.1468H14.2152V27.9247ZM12.8815 27.9247C12.4919 27.9247 12.1094 27.9574 11.7368 28.0202L11.9402 29.2253C12.2459 29.1738 12.5603 29.1468 12.8815 29.1468V27.9247ZM8.92572 29.1852C8.29976 29.6301 7.75207 30.1778 7.30713 30.8038L8.30326 31.5118C8.66897 30.9973 9.11928 30.547 9.63378 30.1813L8.92572 29.1852ZM6.14218 33.6149C6.07931 33.9875 6.04665 34.37 6.04665 34.7596H7.26878C7.26878 34.4384 7.2957 34.1239 7.34728 33.8182L6.14218 33.6149ZM6.04665 34.7596C6.04665 35.1492 6.07931 35.5317 6.14218 35.9043L7.34728 35.701C7.2957 35.3953 7.26878 35.0808 7.26878 34.7596H6.04665ZM7.30713 38.7154C7.75207 39.3414 8.29976 39.8891 8.92572 40.334L9.63377 39.3379C9.11928 38.9722 8.66897 38.5219 8.30326 38.0074L7.30713 38.7154ZM11.7368 41.499C12.1094 41.5618 12.4919 41.5945 12.8815 41.5945V40.3724C12.5603 40.3724 12.2459 40.3454 11.9402 40.2939L11.7368 41.499ZM12.8815 41.5945H14.1883V40.3724H12.8815V41.5945ZM17.6729 41.5945H20.2864V40.3724H17.6729V41.5945ZM23.771 41.5945H26.3845V40.3724H23.771V41.5945ZM29.8691 41.5945H31.1758V40.3724H29.8691V41.5945Z" fill="white"/>
</svg>
