<svg width="27" height="28" viewBox="0 0 27 28" fill="none" xmlns="http://www.w3.org/2000/svg">
<path d="M5.89909 22.66C0.14828 17.8171 0.726337 8.43414 3.47764 5.40743C4.78144 3.97313 6.64503 5.54797 7.7151 6.61807C9.22848 8.13148 10.0069 9.34216 8.92586 10.8556C7.71515 12.5506 7.10973 12.369 4.99107 12.369C4.99107 13.4788 5.20604 17.6099 8.62318 20.2385C11.3472 22.334 13.7686 22.9626 15.8874 22.9626C15.6856 22.0546 15.5847 19.7197 16.7954 19.0279C18.9141 17.8172 20.02 18.923 21.3354 20.2384L21.3355 20.2385C23.1516 22.0546 23.7108 23.0787 22.5463 24.476C21.0328 26.292 13.1633 28.7773 5.89909 22.66Z" stroke="white" stroke-width="1.01134"/>
<path d="M20.1719 13.8113C20.1719 10.1807 17.2287 7.23755 13.5981 7.23755" stroke="white" stroke-width="1.01134" stroke-linecap="round"/>
<path d="M23.2059 13.8114C23.2059 8.50516 18.9044 4.20361 13.5981 4.20361" stroke="white" stroke-width="1.01134" stroke-linecap="round"/>
<path d="M26.2399 13.8115C26.2399 6.82961 20.58 1.16968 13.5981 1.16968" stroke="white" stroke-width="1.01134" stroke-linecap="round"/>
</svg>
